#N canvas 591 28 958 980 12;
#X obj 413 197 adc~;
#X obj 378 263 *~;
#X text 525 216 factor of gain;
#X obj 383 497 dac~ 1 2;
#X obj 428 263 *~;
#X obj 543 90 vsl 15 100 0 100 0 0 empty empty empty 0 -9 0 10 -262144
-1 -1 9900 1;
#X floatatom 469 208 5 0 0 0 - - -;
#X obj 377 373 /~;
#X obj 454 374 /~;
#X obj 293 425 env~;
#X obj 497 421 env~;
#X floatatom 499 457 5 0 0 0 - - -;
#X floatatom 292 459 5 0 0 0 - - -;
#X msg 405 338 50;
#X obj 217 92 noise~;
#X obj 314 166 /~;
#X msg 298 124 66;
#X connect 0 0 1 0;
#X connect 0 1 4 0;
#X connect 1 0 7 0;
#X connect 4 0 8 0;
#X connect 5 0 6 0;
#X connect 5 0 16 0;
#X connect 6 0 1 1;
#X connect 6 0 4 1;
#X connect 6 0 13 0;
#X connect 7 0 3 0;
#X connect 7 0 9 0;
#X connect 8 0 3 1;
#X connect 8 0 10 0;
#X connect 9 0 12 0;
#X connect 10 0 11 0;
#X connect 13 0 7 1;
#X connect 13 0 8 1;
#X connect 14 0 15 0;
#X connect 15 0 1 0;
#X connect 15 0 4 0;
#X connect 16 0 15 1;
