#N canvas 2369 320 450 300 12;
#X obj 167 171 dac~;
#X obj 101 61 fft~;
#X obj 102 25 adc~;
#X text 38 23;
#X obj 179 80 lop~ 100;
#X obj 30 92 lop~ 100;
#X obj 171 109 ifft~;
#X connect 1 0 5 0;
#X connect 1 1 4 0;
#X connect 2 0 1 0;
#X connect 2 1 1 1;
#X connect 4 0 6 1;
#X connect 5 0 6 0;
#X connect 6 0 0 0;
#X connect 6 1 0 1;
