#N canvas 953 0 958 988 12;
#X obj 413 197 adc~;
#X obj 409 255 *~;
#X obj 412 359 dac~;
#X obj 214 169 readsf~;
#X msg 265 116 1;
#X msg 310 136 0;
#X obj 283 254 /~;
#X obj 383 94 bng 15 250 50 0 empty empty empty 17 7 0 10 -262144 -1
-1;
#X obj 344 43 bng 15 250 50 0 empty empty empty 17 7 0 10 -262144 -1
-1;
#X text 299 43 off;
#X text 412 101 on;
#X msg 145 104 open baka.wav;
#X msg 23 191 open cover.wav;
#X msg 89 225 start;
#X msg 120 249 stop;
#X obj 69 408 writesf~ 2;
#X msg 291 212 1.5;
#X msg 470 204 4;
#X connect 0 0 1 0;
#X connect 1 0 15 0;
#X connect 1 0 15 1;
#X connect 3 0 6 0;
#X connect 4 0 3 0;
#X connect 5 0 3 0;
#X connect 6 0 2 0;
#X connect 6 0 2 1;
#X connect 6 0 15 0;
#X connect 6 0 15 1;
#X connect 7 0 11 0;
#X connect 7 0 16 0;
#X connect 7 0 4 0;
#X connect 7 0 12 0;
#X connect 7 0 13 0;
#X connect 7 0 17 0;
#X connect 8 0 5 0;
#X connect 8 0 14 0;
#X connect 11 0 3 0;
#X connect 12 0 15 0;
#X connect 13 0 15 0;
#X connect 14 0 15 0;
#X connect 16 0 6 1;
#X connect 17 0 1 1;
