#N canvas 495 228 958 988 12;
#X obj 203 202 adc~;
#X obj 397 130 bng 15 250 50 0 empty empty empty 17 7 0 10 -262144
-1 -1;
#X obj 205 561 dac~ 1 2;
#X obj 206 264 *~;
#X obj 210 441 lop~;
#X obj 210 355 hip~;
#X text 243 62 gain factor;
#X text 334 284 low cut off (frequency below will be attenuated);
#X text 361 421 high cut off (frequency above will be attenuated);
#X floatatom 263 201 5 0 0 0 - - -;
#X obj 341 51 vsl 15 128 0 1 0 0 empty empty empty 0 -9 0 10 -262144
-1 -1 1100 1;
#X obj 129 492 env~;
#X floatatom 128 524 5 0 0 0 - - -;
#X obj 267 253 *~;
#X obj 270 440 lop~;
#X obj 274 346 hip~;
#X obj 319 484 env~;
#X floatatom 324 520 5 0 0 0 - - -;
#X obj 130 387 env~;
#X floatatom 129 419 5 0 0 0 - - -;
#X obj 323 373 env~;
#X floatatom 322 405 5 0 0 0 - - -;
#X obj 141 296 env~;
#X floatatom 140 328 5 0 0 0 - - -;
#X obj 286 278 env~;
#X floatatom 285 310 5 0 0 0 - - -;
#X obj 134 228 env~;
#X floatatom 131 259 5 0 0 0 - - -;
#X obj 323 232 env~;
#X floatatom 323 259 5 0 0 0 - - -;
#X msg 426 391 330;
#X msg 336 310 550;
#X connect 0 0 3 0;
#X connect 0 0 26 0;
#X connect 0 1 13 0;
#X connect 0 1 28 0;
#X connect 1 0 31 0;
#X connect 1 0 30 0;
#X connect 3 0 5 0;
#X connect 3 0 22 0;
#X connect 4 0 2 0;
#X connect 4 0 11 0;
#X connect 5 0 4 0;
#X connect 5 0 18 0;
#X connect 9 0 3 1;
#X connect 9 0 13 1;
#X connect 10 0 9 0;
#X connect 11 0 12 0;
#X connect 13 0 15 0;
#X connect 13 0 24 0;
#X connect 14 0 2 1;
#X connect 14 0 16 0;
#X connect 15 0 14 0;
#X connect 15 0 20 0;
#X connect 16 0 17 0;
#X connect 18 0 19 0;
#X connect 20 0 21 0;
#X connect 22 0 23 0;
#X connect 24 0 25 0;
#X connect 26 0 27 0;
#X connect 28 0 29 0;
#X connect 30 0 4 1;
#X connect 30 0 14 1;
#X connect 31 0 5 1;
#X connect 31 0 15 1;
