#N canvas -8 -8 2560 1357 12;
#X obj 916 362 hip~;
#X obj 995 120 adc~;
#X obj 1019 574 dac~;
#X obj 1121 357 hip~;
#X floatatom 1004 306 5 0 0 0 - - -;
#X obj 1417 300 vsl 15 200 0 5000 0 0 empty empty empty 0 -9 0 10 -262144
-1 -1 0 1;
#X text 1559 376 high cut off (frequency below will be attenuated)
;
#X obj 893 425 env~;
#X floatatom 896 460 5 0 0 0 - - -;
#X obj 1167 402 env~;
#X floatatom 1174 441 5 0 0 0 - - -;
#X obj 575 118 osc~;
#X floatatom 438 254 5 0 0 0 - - -;
#X text 373 195 frequency of osc.;
#X obj 1209 32 vsl 15 100 0 100 0 0 empty empty empty 0 -9 0 10 -262144
-1 -1 0 1;
#X obj 341 4 vsl 15 200 0 5000 0 0 empty empty empty 0 -9 0 10 -262144
-1 -1 2100 1;
#X floatatom 1166 156 5 0 0 0 - - -;
#X obj 1125 212 *~;
#X obj 1128 259 /~;
#X msg 1179 224 100;
#X floatatom 942 186 5 0 0 0 - - -;
#X obj 862 237 *~;
#X obj 888 301 /~;
#X msg 939 255 100;
#X obj 780 77 vsl 15 100 0 100 0 0 empty empty empty 0 -9 0 10 -262144
-1 -1 1000 1;
#X floatatom 737 201 5 0 0 0 - - -;
#X obj 696 257 *~;
#X obj 802 324 /~;
#X msg 750 269 100;
#X text 671 159 osc. volume;
#X text 1275 98 input volume;
#X connect 0 0 2 0;
#X connect 0 0 7 0;
#X connect 1 0 21 0;
#X connect 1 1 17 0;
#X connect 3 0 2 1;
#X connect 3 0 9 0;
#X connect 4 0 0 1;
#X connect 4 0 3 1;
#X connect 5 0 4 0;
#X connect 7 0 8 0;
#X connect 9 0 10 0;
#X connect 11 0 26 0;
#X connect 12 0 11 0;
#X connect 14 0 16 0;
#X connect 14 0 20 0;
#X connect 15 0 12 0;
#X connect 16 0 17 1;
#X connect 16 0 19 0;
#X connect 17 0 18 0;
#X connect 18 0 3 0;
#X connect 19 0 18 1;
#X connect 20 0 21 1;
#X connect 20 0 23 0;
#X connect 21 0 22 0;
#X connect 22 0 0 0;
#X connect 23 0 22 1;
#X connect 24 0 25 0;
#X connect 25 0 26 1;
#X connect 25 0 28 0;
#X connect 26 0 27 0;
#X connect 27 0 0 0;
#X connect 27 0 3 0;
#X connect 28 0 27 1;
