#N canvas -13 132 1772 842 12;
#X obj 995 120 adc~;
#X obj 1019 574 dac~;
#X floatatom 1004 306 5 0 0 0 - - -;
#X obj 1417 300 vsl 15 200 0 5000 0 0 empty empty empty 0 -9 0 10 -262144
-1 -1 100 1;
#X obj 893 425 env~;
#X floatatom 896 460 5 0 0 0 - - -;
#X obj 1167 402 env~;
#X floatatom 1174 441 5 0 0 0 - - -;
#X floatatom 438 254 5 0 0 0 - - -;
#X text 373 195 frequency of osc.;
#X obj 1209 32 vsl 15 100 0 100 0 0 empty empty empty 0 -9 0 10 -262144
-1 -1 9900 1;
#X obj 341 4 vsl 15 200 0 5000 0 0 empty empty empty 0 -9 0 10 -262144
-1 -1 400 1;
#X floatatom 1166 156 5 0 0 0 - - -;
#X obj 1125 212 *~;
#X obj 1128 259 /~;
#X msg 1179 224 100;
#X floatatom 942 186 5 0 0 0 - - -;
#X obj 862 237 *~;
#X obj 888 301 /~;
#X msg 939 255 100;
#X obj 776 68 vsl 15 100 0 100 0 0 empty empty empty 0 -9 0 10 -262144
-1 -1 0 1;
#X floatatom 737 201 5 0 0 0 - - -;
#X obj 696 257 *~;
#X obj 802 324 /~;
#X text 671 159 osc. volume;
#X text 1275 98 input volume;
#X obj 916 362 lop~;
#X obj 1121 357 lop~;
#X text 1559 376 low cut off (frequency above will be attenuated);
#X msg 750 269 100;
#X obj 575 118 phasor~;
#X connect 0 0 17 0;
#X connect 0 1 13 0;
#X connect 2 0 26 1;
#X connect 2 0 27 1;
#X connect 3 0 2 0;
#X connect 4 0 5 0;
#X connect 6 0 7 0;
#X connect 8 0 30 0;
#X connect 10 0 12 0;
#X connect 10 0 16 0;
#X connect 11 0 8 0;
#X connect 12 0 13 1;
#X connect 12 0 15 0;
#X connect 13 0 14 0;
#X connect 14 0 27 0;
#X connect 15 0 14 1;
#X connect 16 0 17 1;
#X connect 16 0 19 0;
#X connect 17 0 18 0;
#X connect 18 0 26 0;
#X connect 19 0 18 1;
#X connect 20 0 21 0;
#X connect 21 0 22 1;
#X connect 21 0 29 0;
#X connect 22 0 23 0;
#X connect 23 0 26 0;
#X connect 23 0 27 0;
#X connect 26 0 1 0;
#X connect 26 0 4 0;
#X connect 27 0 1 1;
#X connect 27 0 6 0;
#X connect 29 0 23 1;
#X connect 30 0 22 0;
