#N canvas 1256 513 431 286 12;
#X obj 392 75 vsl 15 100 0 100 0 0 empty empty empty 0 -9 0 10 -262144
-1 -1 1200 1;
#X obj 70 59 noise~;
#X floatatom 242 53 5 0 0 0 - - -;
#X obj 180 142 /~;
#X obj 152 91 *~;
#X msg 243 87 2000;
#X obj 171 193 dac~ 1 2;
#X obj 255 156 env~;
#X floatatom 257 192 5 0 0 0 - - -;
#X obj 108 158 env~;
#X floatatom 110 194 5 0 0 0 - - -;
#X connect 0 0 2 0;
#X connect 1 0 4 0;
#X connect 2 0 5 0;
#X connect 2 0 4 1;
#X connect 3 0 6 0;
#X connect 3 0 6 1;
#X connect 3 0 7 0;
#X connect 3 0 9 0;
#X connect 4 0 3 0;
#X connect 5 0 3 1;
#X connect 7 0 8 0;
#X connect 9 0 10 0;
