#N canvas 1060 363 431 371 12;
#X obj 328 32 vsl 15 100 0 100 0 0 empty empty empty 0 -9 0 10 -262144
-1 -1 9900 1;
#X obj 70 76 noise~;
#X floatatom 242 70 5 0 0 0 - - -;
#X obj 180 159 /~;
#X obj 152 93 *~;
#X obj 164 249 dac~ 1 2;
#X obj 255 173 env~;
#X floatatom 257 209 5 0 0 0 - - -;
#X obj 108 175 env~;
#X floatatom 110 211 5 0 0 0 - - -;
#X obj 172 203 lop~ 20;
#X msg 243 104 100;
#X obj 51 156 *~;
#X obj 19 6 vsl 15 100 0 100 0 0 empty empty empty 0 -9 0 10 -262144
-1 -1 700 1;
#X obj 11 119 osc~;
#X connect 0 0 2 0;
#X connect 1 0 4 0;
#X connect 2 0 11 0;
#X connect 2 0 4 1;
#X connect 3 0 6 0;
#X connect 3 0 8 0;
#X connect 3 0 10 0;
#X connect 4 0 12 0;
#X connect 6 0 7 0;
#X connect 8 0 9 0;
#X connect 10 0 5 0;
#X connect 10 0 5 1;
#X connect 11 0 3 1;
#X connect 12 0 3 0;
#X connect 13 0 14 0;
#X connect 14 0 12 1;
