#N canvas 1058 642 450 300 12;
#X obj 167 67 adc~;
#X obj 166 132 dac~;
#X text 115 33 Simple audio passer;
#X obj 98 88 env~;
#X obj 250 86 env~;
#X floatatom 250 110 5 0 0 0 - - -;
#X floatatom 98 112 5 0 0 0 - - -;
#X connect 0 0 1 0;
#X connect 0 0 3 0;
#X connect 0 1 1 1;
#X connect 0 1 4 0;
#X connect 3 0 6 0;
#X connect 4 0 5 0;
