#N canvas 1223 263 461 461 12;
#X obj 212 123 adc~;
#X obj 177 189 *~;
#X text 324 142 factor of gain;
#X obj 182 423 dac~ 1 2;
#X obj 227 189 *~;
#X obj 346 20 vsl 15 100 0 100 0 0 empty empty empty 0 -9 0 10 -262144
-1 -1 9900 1;
#X floatatom 266 143 5 0 0 0 - - -;
#X obj 176 299 /~;
#X obj 253 300 /~;
#X obj 92 351 env~;
#X obj 296 347 env~;
#X floatatom 298 383 5 0 0 0 - - -;
#X floatatom 91 385 5 0 0 0 - - -;
#X obj 69 134 osc~ 120;
#X obj 110 79 osc~ 240;
#X obj 220 56 osc~ 360;
#X msg 204 264 0.5;
#X connect 0 0 1 0;
#X connect 0 1 4 0;
#X connect 1 0 7 0;
#X connect 4 0 8 0;
#X connect 5 0 6 0;
#X connect 6 0 1 1;
#X connect 6 0 4 1;
#X connect 6 0 16 0;
#X connect 7 0 3 0;
#X connect 7 0 9 0;
#X connect 8 0 3 1;
#X connect 8 0 10 0;
#X connect 9 0 12 0;
#X connect 10 0 11 0;
#X connect 13 0 1 1;
#X connect 13 0 4 1;
#X connect 14 0 4 1;
#X connect 14 0 1 1;
#X connect 15 0 1 1;
#X connect 15 0 4 1;
#X connect 16 0 7 1;
#X connect 16 0 8 1;
